<svg width="30" height="30" viewBox="0 0 30 30" fill="none" xmlns="http://www.w3.org/2000/svg">
<path d="M21.3158 27H22.8947V23.25H26.8421V21.75H22.8947V18H21.3158V21.75H17.3684V23.25H21.3158V27ZM22.1053 30C19.9211 30 18.0589 29.2685 16.5189 27.8055C14.9789 26.3425 14.2095 24.574 14.2105 22.5C14.2105 20.425 14.9805 18.656 16.5205 17.193C18.0605 15.73 19.9221 14.999 22.1053 15C24.2895 15 26.1516 15.7315 27.6916 17.1945C29.2316 18.6575 30.0011 20.426 30 22.5C30 24.575 29.23 26.344 27.69 27.807C26.15 29.27 24.2884 30.001 22.1053 30ZM0 27V9L12.6316 0L25.2632 9V12.45C24.7368 12.3 24.2105 12.1875 23.6842 12.1125C23.1579 12.0375 22.6316 12 22.1053 12C19.0263 12 16.4142 13.019 14.2689 15.057C12.1237 17.095 11.0516 19.576 11.0526 22.5C11.0526 23.3 11.1384 24.075 11.31 24.825C11.4816 25.575 11.7511 26.3 12.1184 27H0Z" fill="white"/>
</svg>
