<svg width="35" height="35" viewBox="0 0 35 35" fill="none" xmlns="http://www.w3.org/2000/svg">
<path d="M17.5 0C14.0388 0 10.6554 1.02636 7.77753 2.94928C4.89967 4.87221 2.65665 7.60533 1.33212 10.803C0.00758249 14.0007 -0.338976 17.5194 0.336265 20.9141C1.01151 24.3087 2.67822 27.4269 5.12564 29.8744C7.57306 32.3218 10.6913 33.9885 14.0859 34.6637C17.4806 35.339 20.9993 34.9924 24.197 33.6679C27.3947 32.3433 30.1278 30.1003 32.0507 27.2225C33.9736 24.3446 35 20.9612 35 17.5C34.9951 12.8602 33.1498 8.41187 29.869 5.13104C26.5881 1.85022 22.1398 0.00489969 17.5 0ZM8.42693 29.1947C9.40076 27.6717 10.7423 26.4183 12.328 25.5501C13.9136 24.6819 15.6922 24.2268 17.5 24.2268C19.3078 24.2268 21.0864 24.6819 22.6721 25.5501C24.2577 26.4183 25.5992 27.6717 26.5731 29.1947C23.9789 31.2122 20.7863 32.3076 17.5 32.3076C14.2137 32.3076 11.0211 31.2122 8.42693 29.1947ZM12.1154 16.1538C12.1154 15.0889 12.4312 14.0478 13.0229 13.1623C13.6145 12.2768 14.4555 11.5867 15.4394 11.1791C16.4233 10.7716 17.506 10.6649 18.5505 10.8727C19.595 11.0805 20.5544 11.5933 21.3075 12.3463C22.0606 13.0994 22.5734 14.0588 22.7812 15.1034C22.9889 16.1479 22.8823 17.2305 22.4747 18.2144C22.0672 19.1984 21.377 20.0393 20.4915 20.631C19.606 21.2227 18.565 21.5385 17.5 21.5385C16.0719 21.5385 14.7023 20.9712 13.6925 19.9613C12.6827 18.9515 12.1154 17.5819 12.1154 16.1538ZM28.5654 27.3286C27.064 25.153 24.953 23.4699 22.4976 22.4909C23.8165 21.452 24.7789 20.028 25.251 18.4169C25.7231 16.8057 25.6814 15.0875 25.1317 13.5012C24.582 11.9148 23.5516 10.5392 22.1838 9.56558C20.8161 8.59198 19.1789 8.06881 17.5 8.06881C15.8211 8.06881 14.1839 8.59198 12.8162 9.56558C11.4484 10.5392 10.418 11.9148 9.8683 13.5012C9.31859 15.0875 9.27688 16.8057 9.74897 18.4169C10.2211 20.028 11.1835 21.452 12.5024 22.4909C10.0471 23.4699 7.93597 25.153 6.43462 27.3286C4.5375 25.1952 3.29753 22.5589 2.86403 19.7371C2.43052 16.9154 2.82196 14.0284 3.99121 11.424C5.16047 8.8195 7.05768 6.60857 9.45439 5.05739C11.8511 3.50622 14.6451 2.68094 17.5 2.68094C20.3549 2.68094 23.1489 3.50622 25.5456 5.05739C27.9423 6.60857 29.8395 8.8195 31.0088 11.424C32.178 14.0284 32.5695 16.9154 32.136 19.7371C31.7025 22.5589 30.4625 25.1952 28.5654 27.3286Z" fill="white"/>
</svg>
