<svg width="26" height="25" viewBox="0 0 26 25" fill="none" xmlns="http://www.w3.org/2000/svg">
<path opacity="0.5" d="M18.4382 0H17.1882C13.652 0 11.8857 -7.45058e-08 10.787 1.09875C9.68823 2.1975 9.68823 3.965 9.68823 7.5V17.5C9.68823 21.0362 9.68823 22.8037 10.787 23.9025C11.8845 25 13.652 25 17.1857 25H18.4382C21.9732 25 23.7407 25 24.8395 23.9013C25.9382 22.8038 25.9382 21.035 25.9382 17.5V7.5C25.9382 3.965 25.9382 2.19625 24.8395 1.09875C23.7407 -7.45058e-08 21.9732 0 18.4382 0Z" fill="white"/>
<path fill-rule="evenodd" clip-rule="evenodd" d="M18.1257 12.5C18.1257 12.2514 18.0269 12.0129 17.8511 11.8371C17.6753 11.6613 17.4368 11.5625 17.1882 11.5625H3.47195L5.9232 9.4625C6.01676 9.38239 6.09364 9.28464 6.14943 9.17482C6.20521 9.06501 6.23883 8.94528 6.24835 8.82247C6.25786 8.69967 6.2431 8.57619 6.2049 8.45909C6.1667 8.34199 6.1058 8.23356 6.0257 8.14C5.94559 8.04643 5.84784 7.96956 5.73802 7.91377C5.62821 7.85798 5.50848 7.82436 5.38568 7.81485C5.26287 7.80533 5.13939 7.82009 5.02229 7.85829C4.90519 7.8965 4.79676 7.95739 4.7032 8.0375L0.328197 11.7875C0.225279 11.8755 0.142649 11.9848 0.0859931 12.1078C0.0293372 12.2308 0 12.3646 0 12.5C0 12.6354 0.0293372 12.7692 0.0859931 12.8922C0.142649 13.0152 0.225279 13.1245 0.328197 13.2125L4.7032 16.9625C4.89216 17.1243 5.13766 17.2044 5.38568 17.1851C5.63369 17.1659 5.86391 17.049 6.0257 16.86C6.18748 16.671 6.26757 16.4255 6.24835 16.1775C6.22912 15.9295 6.11216 15.6993 5.9232 15.5375L3.4732 13.4375H17.1882C17.4368 13.4375 17.6753 13.3387 17.8511 13.1629C18.0269 12.9871 18.1257 12.7486 18.1257 12.5Z" fill="white"/>
</svg>
