<svg width="30" height="30" viewBox="0 0 30 30" fill="none" xmlns="http://www.w3.org/2000/svg">
<path d="M2.5 21.25V25H12.5V22.6375H4.875V21.25C4.875 20.45 8.7875 18.625 12.5 18.625C13.7 18.6375 14.8875 18.8 16.0375 19.1L17.9375 17.2C16.1875 16.6125 14.375 16.2875 12.5 16.25C9.1625 16.25 2.5 17.9125 2.5 21.25ZM12.5 5C9.7375 5 7.5 7.2375 7.5 10C7.5 12.7625 9.7375 15 12.5 15C15.2625 15 17.5 12.7625 17.5 10C17.5 7.2375 15.2625 5 12.5 5ZM12.5 12.5C11.125 12.5 10 11.3875 10 10C10 8.6125 11.125 7.5 12.5 7.5C13.875 7.5 15 8.625 15 10C15 11.375 13.8875 12.5 12.5 12.5ZM27.125 16.6875L25.875 17.9375L23.3125 15.4375L24.5625 14.1875C24.691 14.0615 24.8638 13.991 25.0438 13.991C25.2237 13.991 25.3965 14.0615 25.525 14.1875L27.125 15.7875C27.3875 16.05 27.3875 16.4875 27.125 16.75M15 23.675L22.575 16.1L25.1375 18.6L17.6375 26.1875H15V23.675Z" fill="white"/>
</svg>
