<svg width="26" height="26" viewBox="0 0 26 26" fill="none" xmlns="http://www.w3.org/2000/svg">
<path d="M2.53258 25.6563C1.83612 25.6563 1.2397 25.4117 0.743312 24.9225C0.246928 24.4333 -0.000842041 23.8446 2.14989e-06 23.1563V5.65625C2.14989e-06 4.96875 0.248194 4.38 0.744579 3.89C1.24096 3.4 1.83696 3.15542 2.53258 3.15625H13.8342L5.06515 11.8125V20.6563H14.0241L22.7932 11.9688V23.1563C22.7932 23.8438 22.545 24.4325 22.0486 24.9225C21.5522 25.4125 20.9562 25.6571 20.2606 25.6563H2.53258ZM7.59772 18.1563V12.8438L16.6833 3.875L22.0967 9.125L12.9794 18.1563H7.59772ZM23.9012 7.34375L18.4878 2.09375L19.849 0.75C20.3556 0.25 20.9625 0 21.67 0C22.3774 0 22.9734 0.25 23.458 0.75L25.2308 2.53125C25.7162 3.01042 25.9589 3.59375 25.9589 4.28125C25.9589 4.96875 25.7162 5.55208 25.2308 6.03125L23.9012 7.34375Z" fill="#9319CC"/>
</svg>
