<svg width="21" height="23" viewBox="0 0 21 23" fill="none" xmlns="http://www.w3.org/2000/svg">
<path d="M6.83819 16.875L10.1305 13.625L13.4229 16.875L15.1957 15.125L11.9033 11.875L15.1957 8.625L13.4229 6.875L10.1305 10.125L6.83819 6.875L5.06539 8.625L8.35774 11.875L5.06539 15.125L6.83819 16.875ZM3.7991 22.5C3.10265 22.5 2.50623 22.255 2.00984 21.765C1.51346 21.275 1.26569 20.6867 1.26653 20V3.75H0.000244141V1.25H6.33168V0H13.9294V1.25H20.2608V3.75H18.9945V20C18.9945 20.6875 18.7463 21.2763 18.25 21.7663C17.7536 22.2563 17.1576 22.5008 16.462 22.5H3.7991Z" fill="#A644D4"/>
</svg>
