<svg width="26" height="18" viewBox="0 0 26 18" fill="none" xmlns="http://www.w3.org/2000/svg">
<path d="M10.6631 9C10.6631 9.66304 10.9299 10.2989 11.4049 10.7678C11.8798 11.2366 12.524 11.5 13.1957 11.5C13.8673 11.5 14.5115 11.2366 14.9865 10.7678C15.4614 10.2989 15.7282 9.66304 15.7282 9C15.7282 8.33696 15.4614 7.70107 14.9865 7.23223C14.5115 6.76339 13.8673 6.5 13.1957 6.5C12.524 6.5 11.8798 6.76339 11.4049 7.23223C10.9299 7.70107 10.6631 8.33696 10.6631 9Z" stroke="#9319CC" stroke-width="2.08333" stroke-linecap="round" stroke-linejoin="round"/>
<path d="M24.5922 9C21.5531 14 17.7543 16.5 13.1957 16.5C8.63702 16.5 4.83816 14 1.79907 9C4.83816 4 8.63702 1.5 13.1957 1.5C17.7543 1.5 21.5531 4 24.5922 9Z" stroke="#9319CC" stroke-width="2.08333" stroke-linecap="round" stroke-linejoin="round"/>
</svg>
