<svg width="30" height="30" viewBox="0 0 30 30" fill="none" xmlns="http://www.w3.org/2000/svg">
<path d="M18.75 20.8625V16.25H20.625V19.775L23.675 21.5375L22.7375 23.1625L18.75 20.8625ZM13.225 25.525L11.25 27.5L9.375 25.625L7.5 27.5L5.625 25.625L3.75 27.5V2.5L5.625 4.375L7.5 2.5L9.375 4.375L11.25 2.5L13.125 4.375L15 2.5L16.875 4.375L18.75 2.5L20.625 4.375L22.5 2.5L24.375 4.375L26.25 2.5V13.875C27.8488 15.5311 28.7306 17.7505 28.7045 20.0523C28.6784 22.354 27.7465 24.5528 26.1106 26.1723C24.4747 27.7917 22.2666 28.7014 19.9647 28.7043C17.6627 28.7071 15.4524 27.8029 13.8125 26.1875C13.6002 25.9818 13.4039 25.7603 13.225 25.525ZM12.15 23.8625C11.75 23.0375 11.475 22.1625 11.3375 21.25H7.5V18.75H11.3375C11.4625 17.8625 11.725 17.025 12.1 16.25H7.5V13.75H13.875C15.4625 12.2 17.625 11.25 20 11.25H7.5V8.75H22.5V11.25H20C21.3125 11.25 22.5875 11.55 23.75 12.1V6.1375H6.25V23.8625H12.15ZM26.0625 20C26.0625 16.65 23.3375 13.9375 20 13.9375C18.3875 13.9375 16.875 14.575 15.7125 15.7125C14.575 16.875 13.9375 18.3875 13.9375 20C13.9375 23.35 16.65 26.0625 20 26.0625C20.8 26.0625 21.5875 25.9125 22.325 25.625C23.05 25.3 23.75 24.85 24.2875 24.2875C24.85 23.75 25.3 23.05 25.625 22.325C25.9125 21.5875 26.0625 20.8 26.0625 20Z" fill="white"/>
</svg>
